<?xml version="1.0" standalone="no"?>
<!DOCTYPE svg PUBLIC "-//W3C//DTD SVG 20010904//EN"
 "http://www.w3.org/TR/2001/REC-SVG-20010904/DTD/svg10.dtd">
<svg version="1.0" xmlns="http://www.w3.org/2000/svg"
 width="260.000000pt" height="260.000000pt" viewBox="0 0 260.000000 260.000000"
 preserveAspectRatio="xMidYMid meet">
<metadata>
Created by potrace 1.11, written by Peter Selinger 2001-2013
</metadata>
<g transform="translate(0.000000,260.000000) scale(0.100000,-0.100000)"
fill="#000000" stroke="none">
<path d="M1264 2535 c-16 -6 -35 -19 -42 -27 -17 -21 -25 -98 -10 -98 6 0 8
-3 5 -7 -4 -3 -2 -12 3 -18 7 -9 -18 -52 -90 -151 -54 -76 -105 -147 -112
-157 -86 -124 -98 -137 -131 -138 -17 -1 -50 -2 -72 -4 -124 -7 -373 -18 -388
-17 -10 0 -29 12 -42 26 -13 14 -32 27 -42 28 -10 0 -25 2 -33 3 -40 4 -86
-38 -94 -85 -10 -64 48 -125 108 -114 23 4 29 0 42 -33 9 -21 27 -62 40 -90
13 -29 35 -78 49 -108 14 -30 37 -81 51 -112 15 -32 35 -77 45 -101 l18 -42
-91 -178 c-148 -286 -142 -277 -169 -277 -13 0 -30 -4 -37 -10 -32 -24 -52
-50 -53 -67 -1 -10 -2 -24 -2 -30 -1 -7 6 -27 16 -44 14 -28 40 -43 82 -49 17
-2 69 27 83 47 11 16 23 18 78 13 196 -16 323 -25 389 -29 69 -5 62 2 190
-186 43 -63 101 -147 129 -187 44 -64 48 -75 38 -95 -11 -23 -15 -48 -13 -79
2 -25 49 -67 79 -71 41 -5 89 21 104 56 17 40 17 46 1 79 -8 15 -11 33 -7 40
5 7 72 110 151 229 l143 218 47 1 c27 1 66 3 88 4 22 2 119 6 216 10 170 7
176 6 181 -13 8 -28 53 -55 89 -54 37 1 80 27 86 53 3 10 10 16 16 12 6 -4 7
-1 2 7 -4 7 -9 25 -10 40 -3 36 -44 77 -81 82 -27 3 -38 20 -152 245 l-122
242 117 238 c64 131 120 241 126 244 5 4 18 4 28 2 21 -6 68 21 84 46 12 20
15 91 4 91 -5 0 -9 6 -9 13 0 7 -10 19 -22 27 -45 29 -101 20 -138 -23 -23
-26 -14 -26 -335 -13 -55 2 -128 5 -162 5 l-61 1 -44 63 c-25 34 -92 132 -151
218 -99 145 -105 157 -93 180 15 30 14 80 -3 113 -18 32 -77 48 -117 31z"/>
</g>
</svg>
